<svg width="228" height="88" viewBox="0 0 228 88" fill="none" xmlns="http://www.w3.org/2000/svg">
<path d="M208.377 67.2788C207.428 66.3781 206.288 65.3807 204.999 64.4129C201.364 61.6814 196.322 59.0143 191.01 59.7819C188.483 53.9662 190.867 47.1064 196.584 44.1543C202.293 41.2064 209.254 43.2238 212.539 48.6341C208.345 52.7478 207.589 58.4286 207.841 62.9783C207.928 64.5531 208.136 66.0191 208.377 67.2788Z" stroke="#FBDA7D" stroke-width="2.25"/>
<path d="M185.105 77.2153C184.156 76.3147 183.015 75.3172 181.727 74.3494C178.092 71.618 173.05 68.9509 167.738 69.7184C165.21 63.9027 167.595 57.0429 173.312 54.0908C179.02 51.1429 185.982 53.1603 189.267 58.5706C185.072 62.6844 184.317 68.3651 184.568 72.9149C184.655 74.4896 184.864 75.9556 185.105 77.2153Z" stroke="#FBDA7D" stroke-width="2.25"/>
<path d="M208.748 17.4113C207.766 18.2767 206.59 19.2318 205.268 20.1519C201.535 22.7487 196.399 25.2298 191.118 24.2686C188.38 29.9881 190.512 36.9304 196.117 40.0895C201.714 43.244 208.745 41.4823 212.225 36.1957C208.184 31.9314 207.637 26.2268 208.054 21.6893C208.199 20.1188 208.461 18.6614 208.748 17.4113Z" stroke="#FBDA7D" stroke-width="2.25"/>
<path d="M184.748 10.4113C183.766 11.2767 182.59 12.2318 181.268 13.1519C177.535 15.7487 172.399 18.2298 167.118 17.2686C164.38 22.9881 166.512 29.9304 172.117 33.0895C177.714 36.244 184.745 34.4823 188.225 29.1957C184.184 24.9314 183.637 19.2268 184.054 14.6893C184.199 13.1188 184.461 11.6614 184.748 10.4113Z" stroke="#FBDA7D" stroke-width="2.25"/>
<path d="M26.3585 31.3263L25.8 31.6795V32.3404V55.5181V56.1967L26.3816 56.5465L53.7921 73.0284L54.0775 73.2H54.4105H181.918H182.348L182.68 72.9276L202.761 56.4457L203.2 56.0856V55.5181V32.3404V31.7911L202.784 31.4321L182.703 14.0917L182.365 13.8H181.918H54.4105H54.0628L53.769 13.9859L26.3585 31.3263Z" fill="#310B12" stroke="#FBDA7D" stroke-width="2.4"/>
<path d="M28 54.9525V32.891L54.7003 16H181.546L201 32.7981V55.0451L181.561 71H54.688L28 54.9525Z" fill="#310B12" stroke="#926852" stroke-width="2"/>
<path d="M35.2644 10.5337L38.9781 30.5675L53.7582 16.5427L44.9872 34.9333L65.188 32.2745L47.2824 41.9973L65.188 51.7201L44.9872 49.0613L53.7582 67.4519L38.9781 53.4271L35.2644 73.4609L31.5506 53.4271L16.7705 67.4519L25.5416 49.0613L5.34072 51.7201L23.2464 41.9973L5.34072 32.2745L25.5416 34.9333L16.7705 16.5427L31.5506 30.5675L35.2644 10.5337Z" fill="#FBDA7D"/>
<rect x="56.2366" y="32.3921" width="20.5086" height="20.5086" transform="rotate(90 56.2366 32.3921)" stroke="#FBDA7D" stroke-width="2.77143"/>
<rect x="44.448" y="43.3359" width="20.5086" height="20.5086" transform="rotate(90 44.448 43.3359)" stroke="#FBDA7D" stroke-width="2.77143"/>
<rect x="33.5345" y="32.7837" width="20.5086" height="20.5086" transform="rotate(90 33.5345 32.7837)" stroke="#FBDA7D" stroke-width="2.77143"/>
<rect x="45.2925" y="21.0259" width="20.5086" height="20.5086" transform="rotate(90 45.2925 21.0259)" stroke="#FBDA7D" stroke-width="2.77143"/>
<path d="M14.2874 50.1466V35.8356L27.8707 21.7671H41.9392L55.28 35.8356V50.1466L41.9392 63.4874H27.8707L14.2874 50.1466Z" fill="#312122" stroke="#FBDA7D" stroke-width="2.4256"/>
<path d="M223.384 42.585C222.148 42.155 220.738 41.5993 219.288 40.8988C215.193 38.9219 210.51 35.666 208.754 30.5936C202.427 31.0163 197.426 36.2823 197.426 42.7165C197.426 49.1413 202.413 54.4015 208.727 54.8375C210.458 49.2233 215.158 45.9453 219.316 44.0814C220.756 43.4362 222.154 42.9489 223.384 42.585Z" stroke="#FBDA7D" stroke-width="2.25"/>
</svg>
