<svg width="169" height="34" viewBox="0 0 169 34" fill="none" xmlns="http://www.w3.org/2000/svg">
<path d="M16.2978 1.24023L18.2215 11.0447L25.8775 4.18103L21.3341 13.1813L31.798 11.8801L22.5231 16.6384L31.798 21.3967L21.3341 20.0955L25.8775 29.0958L18.2215 22.2321L16.2978 32.0366L14.3741 22.2321L6.71821 29.0958L11.2615 20.0955L0.797673 21.3967L10.0726 16.6384L0.797673 11.8801L11.2615 13.1813L6.71821 4.18103L14.3741 11.0447L16.2978 1.24023Z" fill="#FBDA7D"/>
<rect x="30.8917" y="11.9379" width="10.0368" height="10.7025" transform="rotate(90 30.8917 11.9379)" stroke="#FBDA7D" stroke-width="1.35633"/>
<rect x="24.785" y="17.2934" width="10.0368" height="10.7025" transform="rotate(90 24.785 17.2934)" stroke="#FBDA7D" stroke-width="1.35633"/>
<rect x="19.1319" y="12.1293" width="10.0368" height="10.7025" transform="rotate(90 19.1319 12.1293)" stroke="#FBDA7D" stroke-width="1.35633"/>
<rect x="25.2227" y="6.37494" width="10.0368" height="10.7025" transform="rotate(90 25.2227 6.37494)" stroke="#FBDA7D" stroke-width="1.35633"/>
<path d="M9.1228 20.6266V13.6229L16.1589 6.73779H23.4462L30.3566 13.6229V20.6266L23.4462 27.1556H16.1589L9.1228 20.6266Z" fill="#312122" stroke="#FBDA7D" stroke-width="1.18708"/>
<path d="M152.702 1.24023L150.778 11.0447L143.123 4.18103L147.666 13.1813L137.202 11.8801L146.477 16.6384L137.202 21.3967L147.666 20.0955L143.123 29.0958L150.778 22.2321L152.702 32.0366L154.626 22.2321L162.282 29.0958L157.738 20.0955L168.202 21.3967L158.927 16.6384L168.202 11.8801L157.738 13.1813L162.282 4.18103L154.626 11.0447L152.702 1.24023Z" fill="#FBDA7D"/>
<rect x="0.697132" y="0.658649" width="10.3744" height="10.3744" transform="matrix(0 0.971225 1.02797 0 137.45 11.2413)" stroke="#FBDA7D" stroke-width="1.35633"/>
<rect x="0.697132" y="0.658649" width="10.3744" height="10.3744" transform="matrix(0 0.971225 1.02797 0 143.557 16.5968)" stroke="#FBDA7D" stroke-width="1.35633"/>
<rect x="0.697132" y="0.658649" width="10.3744" height="10.3744" transform="matrix(0 0.971225 1.02797 0 149.21 11.4327)" stroke="#FBDA7D" stroke-width="1.35633"/>
<rect x="0.697132" y="0.658649" width="10.3744" height="10.3744" transform="matrix(0 0.971225 1.02797 0 143.119 5.67836)" stroke="#FBDA7D" stroke-width="1.35633"/>
<path d="M159.877 20.6266V13.6229L152.841 6.73779H145.554L138.644 13.6229V20.6266L145.554 27.1556H152.841L159.877 20.6266Z" fill="#312122" stroke="#FBDA7D" stroke-width="1.18708"/>
<path d="M17.0132 10.2128L24.1314 2.74023H144.614L151.732 10.2128V24.0369L144.614 31.3849H24.1314L17.0132 24.0369V10.2128Z" fill="#773632" stroke="#FBDA7D" stroke-width="1.24542"/>
<path d="M19.6494 11.274L25.054 5.23096H143.427L149.095 11.274V22.9159L143.427 28.894H25.054L19.6494 23.165V11.274Z" stroke="#926852" stroke-width="2.49084"/>
</svg>
